<svg width="97" height="97" xmlns="http://www.w3.org/2000/svg" xmlns:xlink="http://www.w3.org/1999/xlink" xml:space="preserve" overflow="hidden"><defs><clipPath id="clip0"><rect x="1040" y="381" width="97" height="97"/></clipPath><clipPath id="clip1"><rect x="1041" y="382" width="96" height="96"/></clipPath><clipPath id="clip2"><rect x="1041" y="382" width="96" height="96"/></clipPath><clipPath id="clip3"><rect x="1041" y="382" width="96" height="96"/></clipPath></defs><g clip-path="url(#clip0)" transform="translate(-1040 -381)"><g clip-path="url(#clip1)"><g clip-path="url(#clip2)"><g clip-path="url(#clip3)"><path d="M1126 419.4C1124.3 415.3 1119.6 413.4 1115.5 415.1 1112.1 416.5 1110.1 420.1 1110.6 423.6L1097.7 429C1096.3 426.6 1093.8 424.8 1091 424.3L1091 410.4C1094.4 409.5 1097 406.4 1097 402.7 1097 398.3 1093.4 394.7 1089 394.7 1084.6 394.7 1081 398.3 1081 402.7 1081 406.4 1083.6 409.5 1087 410.4L1087 424.2C1084.1 424.7 1081.7 426.5 1080.3 428.9L1067.4 423.5C1067.9 420 1066 416.4 1062.5 415 1058.4 413.3 1053.7 415.2 1052 419.3 1050.3 423.4 1052.2 428.1 1056.3 429.8 1059.7 431.2 1063.6 430.1 1065.7 427.2L1078.9 432.6C1078.8 433 1078.8 433.5 1078.8 433.9 1078.8 436.1 1079.5 438.2 1080.8 439.9L1070.4 450.4C1067.3 448.6 1063.3 449 1060.7 451.6 1057.6 454.7 1057.6 459.8 1060.7 462.9 1063.8 466 1068.9 466 1072 462.9 1074.6 460.3 1075 456.3 1073.2 453.2L1083.8 442.6C1085.3 443.5 1087 444 1088.8 444 1088.9 444 1088.9 444 1089 444 1089.1 444 1089.1 444 1089.2 444 1091 444 1092.7 443.5 1094.2 442.6L1104.8 453.2C1103 456.3 1103.4 460.3 1106 463 1109.1 466.1 1114.2 466.1 1117.3 463 1120.4 459.9 1120.4 454.8 1117.3 451.7 1114.7 449.1 1110.7 448.7 1107.6 450.5L1097.2 440C1098.5 438.3 1099.2 436.3 1099.2 434 1099.2 433.6 1099.2 433.1 1099.1 432.7L1112.3 427.3C1114.4 430.1 1118.3 431.3 1121.7 429.9 1125.7 428.1 1127.7 423.5 1126 419.4Z" fill="#000000" fill-rule="nonzero" fill-opacity="1"/></g></g></g></g></svg>